<svg xmlns="http://www.w3.org/2000/svg" viewBox="0 0 2000 1000" width="2000" height="1000" role="img" aria-label="">
<defs>
<radialGradient id="s3g" cx="0.7" cy="0.25" r="0.85">
<stop offset="0" stop-color="#14A4B8" stop-opacity="0.40"/><stop offset="1" stop-color="#14A4B8" stop-opacity="0"/>
</radialGradient>
</defs>
<rect width="2000" height="1000" fill="#0A1416"/>
<rect width="2000" height="1000" fill="url(#s3g)"/>
<g transform="translate(60 560) scale(1.7)" opacity="0.22"><circle cx="50" cy="20" r="13" fill="#14A4B8"/><path d="M50 33 L50 88" stroke="#14A4B8" stroke-width="9" stroke-linecap="round" stroke-linejoin="round" fill="none"/><path d="M50 46 L32 72" stroke="#14A4B8" stroke-width="9" stroke-linecap="round" stroke-linejoin="round" fill="none"/><path d="M50 46 L70 60 L80 58" stroke="#14A4B8" stroke-width="9" stroke-linecap="round" stroke-linejoin="round" fill="none"/><path d="M50 88 L39 160" stroke="#14A4B8" stroke-width="9" stroke-linecap="round" stroke-linejoin="round" fill="none"/><path d="M50 88 L63 160" stroke="#14A4B8" stroke-width="9" stroke-linecap="round" stroke-linejoin="round" fill="none"/></g><g transform="translate(255 560) scale(1.7)" opacity="0.22"><circle cx="50" cy="40" r="13" fill="#14A4B8"/><path d="M50 53 L54 96" stroke="#14A4B8" stroke-width="9" stroke-linecap="round" stroke-linejoin="round" fill="none"/><path d="M50 64 L84 60" stroke="#14A4B8" stroke-width="9" stroke-linecap="round" stroke-linejoin="round" fill="none"/><path d="M54 96 L28 114 L33 160" stroke="#14A4B8" stroke-width="9" stroke-linecap="round" stroke-linejoin="round" fill="none"/><path d="M54 96 L80 114 L76 160" stroke="#14A4B8" stroke-width="9" stroke-linecap="round" stroke-linejoin="round" fill="none"/></g><g transform="translate(450 560) scale(1.7)" opacity="0.22"><circle cx="50" cy="32" r="13" fill="#14A4B8"/><path d="M50 45 L50 95" stroke="#14A4B8" stroke-width="9" stroke-linecap="round" stroke-linejoin="round" fill="none"/><path d="M50 55 L28 24" stroke="#14A4B8" stroke-width="9" stroke-linecap="round" stroke-linejoin="round" fill="none"/><path d="M50 55 L72 24" stroke="#14A4B8" stroke-width="9" stroke-linecap="round" stroke-linejoin="round" fill="none"/><path d="M12 20 L88 20" stroke="#14A4B8" stroke-width="7.65" stroke-linecap="round"/><path d="M50 95 L40 160" stroke="#14A4B8" stroke-width="9" stroke-linecap="round" stroke-linejoin="round" fill="none"/><path d="M50 95 L61 160" stroke="#14A4B8" stroke-width="9" stroke-linecap="round" stroke-linejoin="round" fill="none"/></g><g transform="translate(645 560) scale(1.7)" opacity="0.22"><circle cx="44" cy="28" r="13" fill="#14A4B8"/><path d="M44 41 L49 88" stroke="#14A4B8" stroke-width="9" stroke-linecap="round" stroke-linejoin="round" fill="none"/><path d="M45 53 L34 80" stroke="#14A4B8" stroke-width="9" stroke-linecap="round" stroke-linejoin="round" fill="none"/><path d="M45 53 L58 78" stroke="#14A4B8" stroke-width="9" stroke-linecap="round" stroke-linejoin="round" fill="none"/><path d="M49 88 L78 114 L82 160" stroke="#14A4B8" stroke-width="9" stroke-linecap="round" stroke-linejoin="round" fill="none"/><path d="M49 88 L24 120 L14 154" stroke="#14A4B8" stroke-width="9" stroke-linecap="round" stroke-linejoin="round" fill="none"/></g><g transform="translate(840 560) scale(1.7)" opacity="0.22"><circle cx="30" cy="48" r="13" fill="#14A4B8"/><path d="M42 54 L68 76" stroke="#14A4B8" stroke-width="9" stroke-linecap="round" stroke-linejoin="round" fill="none"/><path d="M52 63 L50 108" stroke="#14A4B8" stroke-width="9" stroke-linecap="round" stroke-linejoin="round" fill="none"/><path d="M22 108 L78 108" stroke="#14A4B8" stroke-width="7.65" stroke-linecap="round"/><path d="M68 76 L66 118 L70 160" stroke="#14A4B8" stroke-width="9" stroke-linecap="round" stroke-linejoin="round" fill="none"/><path d="M68 76 L48 120 L44 160" stroke="#14A4B8" stroke-width="9" stroke-linecap="round" stroke-linejoin="round" fill="none"/></g><g transform="translate(1035 560) scale(1.7)" opacity="0.22"><circle cx="50" cy="30" r="13" fill="#14A4B8"/><path d="M50 43 L48 94" stroke="#14A4B8" stroke-width="9" stroke-linecap="round" stroke-linejoin="round" fill="none"/><path d="M50 54 L34 18" stroke="#14A4B8" stroke-width="9" stroke-linecap="round" stroke-linejoin="round" fill="none"/><path d="M50 54 L74 34" stroke="#14A4B8" stroke-width="9" stroke-linecap="round" stroke-linejoin="round" fill="none"/><path d="M48 94 L36 160" stroke="#14A4B8" stroke-width="9" stroke-linecap="round" stroke-linejoin="round" fill="none"/><path d="M48 94 L62 160" stroke="#14A4B8" stroke-width="9" stroke-linecap="round" stroke-linejoin="round" fill="none"/></g><g transform="translate(1230 560) scale(1.7)" opacity="0.22"><circle cx="50" cy="20" r="13" fill="#14A4B8"/><path d="M50 33 L50 88" stroke="#14A4B8" stroke-width="9" stroke-linecap="round" stroke-linejoin="round" fill="none"/><path d="M50 46 L32 72" stroke="#14A4B8" stroke-width="9" stroke-linecap="round" stroke-linejoin="round" fill="none"/><path d="M50 46 L70 60 L80 58" stroke="#14A4B8" stroke-width="9" stroke-linecap="round" stroke-linejoin="round" fill="none"/><path d="M50 88 L39 160" stroke="#14A4B8" stroke-width="9" stroke-linecap="round" stroke-linejoin="round" fill="none"/><path d="M50 88 L63 160" stroke="#14A4B8" stroke-width="9" stroke-linecap="round" stroke-linejoin="round" fill="none"/></g><g transform="translate(1425 560) scale(1.7)" opacity="0.22"><circle cx="50" cy="40" r="13" fill="#14A4B8"/><path d="M50 53 L54 96" stroke="#14A4B8" stroke-width="9" stroke-linecap="round" stroke-linejoin="round" fill="none"/><path d="M50 64 L84 60" stroke="#14A4B8" stroke-width="9" stroke-linecap="round" stroke-linejoin="round" fill="none"/><path d="M54 96 L28 114 L33 160" stroke="#14A4B8" stroke-width="9" stroke-linecap="round" stroke-linejoin="round" fill="none"/><path d="M54 96 L80 114 L76 160" stroke="#14A4B8" stroke-width="9" stroke-linecap="round" stroke-linejoin="round" fill="none"/></g><g transform="translate(1620 560) scale(1.7)" opacity="0.22"><circle cx="50" cy="32" r="13" fill="#14A4B8"/><path d="M50 45 L50 95" stroke="#14A4B8" stroke-width="9" stroke-linecap="round" stroke-linejoin="round" fill="none"/><path d="M50 55 L28 24" stroke="#14A4B8" stroke-width="9" stroke-linecap="round" stroke-linejoin="round" fill="none"/><path d="M50 55 L72 24" stroke="#14A4B8" stroke-width="9" stroke-linecap="round" stroke-linejoin="round" fill="none"/><path d="M12 20 L88 20" stroke="#14A4B8" stroke-width="7.65" stroke-linecap="round"/><path d="M50 95 L40 160" stroke="#14A4B8" stroke-width="9" stroke-linecap="round" stroke-linejoin="round" fill="none"/><path d="M50 95 L61 160" stroke="#14A4B8" stroke-width="9" stroke-linecap="round" stroke-linejoin="round" fill="none"/></g><g transform="translate(1815 560) scale(1.7)" opacity="0.22"><circle cx="44" cy="28" r="13" fill="#14A4B8"/><path d="M44 41 L49 88" stroke="#14A4B8" stroke-width="9" stroke-linecap="round" stroke-linejoin="round" fill="none"/><path d="M45 53 L34 80" stroke="#14A4B8" stroke-width="9" stroke-linecap="round" stroke-linejoin="round" fill="none"/><path d="M45 53 L58 78" stroke="#14A4B8" stroke-width="9" stroke-linecap="round" stroke-linejoin="round" fill="none"/><path d="M49 88 L78 114 L82 160" stroke="#14A4B8" stroke-width="9" stroke-linecap="round" stroke-linejoin="round" fill="none"/><path d="M49 88 L24 120 L14 154" stroke="#14A4B8" stroke-width="9" stroke-linecap="round" stroke-linejoin="round" fill="none"/></g>
<line x1="0" y1="836" x2="2000" y2="836" stroke="#BDE0E8" stroke-width="2" opacity="0.14"/>
</svg>